<svg width="30" height="30" viewBox="0 0 30 30" fill="none" xmlns="http://www.w3.org/2000/svg">
<g clip-path="url(#clip0_431_626)">
<path d="M27.5103 19.1377C29.1436 16.9689 30.0324 14.3877 29.9991 11.7841C29.9991 11.5356 29.8324 11.3153 29.5936 11.2476C27.8548 10.7562 25.9881 10.7167 24.1496 11.1177C24.0218 9.79609 23.6774 8.50835 23.1107 7.3563C22.9996 7.13038 22.7552 7.01178 22.5163 7.05131C21.2219 7.29417 19.9553 7.80247 18.8109 8.53106C18.0109 6.79153 16.8332 5.25532 15.3333 4.11437C15.1333 3.96188 14.8667 3.96188 14.6667 4.11437C13.1667 5.25521 11.9891 6.78578 11.1891 8.53106C10.0447 7.79686 8.77813 7.28854 7.48369 7.05131C7.23926 7.00613 7.00037 7.13038 6.88927 7.3563C6.32261 8.50845 5.9782 9.79616 5.85042 11.1177C4.01162 10.7167 2.14501 10.7562 0.406431 11.2476C0.167552 11.3153 0.000904638 11.5356 0.000904638 11.7841C-0.032427 14.3878 0.856399 16.9743 2.48967 19.1377C1.91746 19.4766 1.39529 19.8776 0.917516 20.335C0.739747 20.5101 0.689751 20.7812 0.80641 21.0015C2.18412 23.7294 5.00069 25.6213 8.15608 25.9492C8.4894 25.9831 8.81162 26 9.12272 26C12.0559 26 14.1223 24.5881 15.0001 23.8595C15.8723 24.588 17.9388 26 20.8775 26C21.1886 26 21.5108 25.9831 21.8441 25.9492C24.9995 25.6216 27.8161 23.7239 29.1938 21.0015C29.3049 20.7756 29.2605 20.5045 29.0827 20.335C28.6105 19.8776 28.0825 19.4766 27.5103 19.1377ZM28.8825 12.2247C28.8103 14.6307 27.8825 17.0029 26.2382 18.9458C25.5771 19.7364 24.8049 20.4368 23.9383 21.0298C20.9107 23.0912 17.822 23.0178 16.2221 22.7806C17.5331 21.5099 19.6774 18.827 19.9442 14.7157C19.9553 14.5689 19.9553 14.4164 19.9608 14.2695C21.1108 13.3885 22.3941 12.7446 23.7939 12.3549C25.4994 11.8805 27.2437 11.8353 28.877 12.2194L28.8825 12.2247ZM22.2994 8.25445C22.7271 9.23719 22.9827 10.3159 23.066 11.4172C21.9549 11.7674 20.905 12.2644 19.9383 12.9139C19.855 11.7731 19.6217 10.6604 19.2495 9.60993C20.1939 8.97737 21.2327 8.50859 22.3049 8.25445H22.2994ZM14.9998 5.28935C17.6164 7.46939 19.0775 11.0163 18.8386 14.6422C18.5552 18.9345 16.0332 21.5041 14.9998 22.3854C13.9666 21.5043 11.4444 18.9345 11.1611 14.6422C10.9222 11.0106 12.3888 7.46932 14.9998 5.28935ZM7.70028 8.25445C8.77244 8.5086 9.81129 8.97737 10.7557 9.60993C10.3835 10.6661 10.1502 11.7787 10.0668 12.9139C9.10021 12.2644 8.05027 11.7731 6.93922 11.4172C7.02255 10.3159 7.27809 9.23152 7.70583 8.25445H7.70028ZM6.20034 12.3603C7.60027 12.7443 8.88355 13.3939 10.0334 14.2692C10.0334 14.4161 10.0389 14.5686 10.0501 14.7154C10.3223 18.827 12.4666 21.5098 13.7722 22.7803C12.1723 23.0119 9.08335 23.0853 6.05595 21.0295C5.18932 20.4365 4.41159 19.7362 3.7505 18.9455C2.11169 17.0026 1.18395 14.6303 1.10619 12.2245C2.73946 11.8404 4.48934 11.8856 6.19464 12.36L6.20034 12.3603ZM8.27245 24.8249C5.63368 24.5538 3.27288 23.0458 2.0061 20.8601C2.37831 20.5381 2.79497 20.267 3.22826 20.0242C3.8838 20.7471 4.62264 21.4022 5.44482 21.967C7.87805 23.6218 10.3114 24.0398 12.1556 24.0398C12.3278 24.0398 12.5 24.0398 12.6611 24.0285C11.5723 24.565 10.0725 25.0113 8.27245 24.8249ZM21.7274 24.8249C19.9275 25.0113 18.4331 24.5651 17.3443 24.0286C17.5054 24.0342 17.6721 24.0399 17.8499 24.0399C19.6942 24.0399 22.133 23.622 24.5606 21.9671C25.3828 21.4023 26.1217 20.7472 26.7772 20.0243C27.2105 20.2671 27.6272 20.5382 27.9994 20.8601C26.7328 23.0459 24.3661 24.5481 21.733 24.825L21.7274 24.8249Z" fill="black" stroke="black" stroke-width="0.7"/>
</g>
<defs>
<clipPath id="clip0_431_626">
<rect width="30" height="30" fill="white"/>
</clipPath>
</defs>
</svg>
