<svg width="34" height="34" viewBox="0 0 34 34" fill="none" xmlns="http://www.w3.org/2000/svg">
<path d="M33 13.7803C32.9229 16.4949 31.85 19.1682 29.953 21.3611C29.1942 22.2464 28.299 23.032 27.2972 23.6945C23.7521 26.0397 20.1182 25.9224 18.3043 25.6469C19.7982 24.2574 22.3236 21.2556 22.6378 16.5945C22.6496 16.4186 22.6496 16.2486 22.6556 16.0727C23.9835 15.0819 25.4714 14.349 27.0957 13.9151C29.0697 13.3816 31.1029 13.3347 32.9999 13.7744L33 13.7803ZM25.412 9.31845C25.9218 10.4383 26.2182 11.6753 26.3131 12.9417C24.997 13.3404 23.764 13.915 22.6317 14.6596C22.5369 13.3521 22.2642 12.074 21.8255 10.8604C22.9341 10.1334 24.1553 9.59983 25.418 9.31256L25.412 9.31845ZM17 6C20.0352 8.44484 21.7364 12.4318 21.4579 16.518C21.1319 21.3728 18.1738 24.2631 17 25.2305C15.8262 24.2631 12.8679 21.3728 12.542 16.518C12.2634 12.4314 13.9648 8.44462 17 6ZM8.58792 9.31845C9.8506 9.60573 11.0718 10.1393 12.1804 10.8663C11.7417 12.0741 11.4631 13.3522 11.3742 14.6655C10.2419 13.915 9.00291 13.3463 7.69281 12.9476C7.78766 11.6812 8.08404 10.4441 8.59388 9.32434L8.58792 9.31845ZM6.90434 13.921C8.5227 14.3548 10.0166 15.0877 11.3444 16.0786C11.3444 16.2545 11.3504 16.4245 11.3622 16.6004C11.6764 21.2555 14.2077 24.2633 15.6957 25.6528C13.8818 25.9225 10.2479 26.0456 6.70283 23.7004C5.70099 23.0321 4.81175 22.2464 4.04703 21.3611C2.15004 19.1683 1.07706 16.4947 1 13.7803C2.897 13.3406 4.92463 13.3875 6.90434 13.921ZM9.26375 27.9452C6.20484 27.6345 3.46614 25.9342 2.00773 23.4601C2.45827 23.0849 2.95623 22.7624 3.47791 22.481C4.2367 23.3018 5.09035 24.0346 6.04477 24.6737C8.83101 26.5147 11.6231 26.9837 13.7337 26.9837C14.0123 26.9837 14.2731 26.972 14.5281 26.9603C13.2535 27.5993 11.4573 28.1739 9.26997 27.9511L9.26375 27.9452ZM24.736 27.9452C22.5486 28.168 20.7463 27.5934 19.4719 26.9544C19.7268 26.9661 19.9876 26.9778 20.2663 26.9778C22.3767 26.9778 25.1689 26.5146 27.9552 24.6678C28.9096 24.0346 29.7632 23.2959 30.5161 22.481C31.0378 22.7682 31.5417 23.0849 31.9863 23.4601C30.5279 25.9343 27.7894 27.6345 24.7303 27.9452H24.736Z" fill="black"/>
</svg>
