<svg width="54" height="61" viewBox="0 0 54 61" fill="none" xmlns="http://www.w3.org/2000/svg">
<path d="M27 29.3704C25.1089 29.371 23.2811 30.055 21.8508 31.2972C20.4205 32.5395 19.4832 34.2571 19.2102 36.1361C18.9371 38.0151 19.3466 39.9301 20.3638 41.5309C21.381 43.1317 22.9379 44.3116 24.75 44.8548V49.7037C24.75 50.3029 24.9871 50.8775 25.409 51.3012C25.831 51.7249 26.4033 51.963 27 51.963C27.5967 51.963 28.169 51.7249 28.591 51.3012C29.0129 50.8775 29.25 50.3029 29.25 49.7037V44.8548C31.0621 44.3116 32.619 43.1317 33.6362 41.5309C34.6534 39.9301 35.0629 38.0151 34.7898 36.1361C34.5168 34.2571 33.5795 32.5395 32.1492 31.2972C30.7189 30.055 28.8911 29.371 27 29.3704ZM27 40.6667C26.3325 40.6667 25.68 40.4679 25.125 40.0955C24.5699 39.7232 24.1374 39.1939 23.8819 38.5746C23.6265 37.9554 23.5596 37.274 23.6898 36.6166C23.8201 35.9593 24.1415 35.3554 24.6135 34.8815C25.0855 34.4075 25.6869 34.0848 26.3416 33.954C26.9963 33.8232 27.6749 33.8904 28.2916 34.1469C28.9083 34.4034 29.4354 34.8377 29.8062 35.395C30.1771 35.9523 30.375 36.6075 30.375 37.2778C30.375 38.1766 30.0194 39.0385 29.3865 39.6741C28.7535 40.3096 27.8951 40.6667 27 40.6667ZM49.5 20.3333H40.5V13.5556C40.5 9.9604 39.0777 6.51249 36.5459 3.97033C34.0142 1.42817 30.5804 0 27 0C23.4196 0 19.9858 1.42817 17.4541 3.97033C14.9223 6.51249 13.5 9.9604 13.5 13.5556V20.3333H4.5C3.30653 20.3333 2.16193 20.8094 1.31802 21.6568C0.474106 22.5042 0 23.6535 0 24.8519V56.4815C0 57.6799 0.474106 58.8292 1.31802 59.6766C2.16193 60.5239 3.30653 61 4.5 61H49.5C50.6935 61 51.8381 60.5239 52.682 59.6766C53.5259 58.8292 54 57.6799 54 56.4815V24.8519C54 23.6535 53.5259 22.5042 52.682 21.6568C51.8381 20.8094 50.6935 20.3333 49.5 20.3333ZM18 13.5556C18 11.1588 18.9482 8.86018 20.636 7.1654C22.3239 5.47063 24.6131 4.51852 27 4.51852C29.3869 4.51852 31.6761 5.47063 33.364 7.1654C35.0518 8.86018 36 11.1588 36 13.5556V20.3333H18V13.5556ZM49.5 56.4815H4.5V24.8519H49.5V56.4815Z" fill="white"/>
</svg>
